<?xml version="1.0" encoding="utf-8"?>
<!-- Generator: Adobe Illustrator 25.2.3, SVG Export Plug-In . SVG Version: 6.00 Build 0)  -->
<svg version="1.1" id="Seal" xmlns="http://www.w3.org/2000/svg" xmlns:xlink="http://www.w3.org/1999/xlink" x="0px" y="0px"
	 viewBox="0 0 1133.9 1133.9" style="enable-background:new 0 0 1133.9 1133.9;" xml:space="preserve">
<style type="text/css">
	.st0{fill:#231F20;}
	.st1{fill-rule:evenodd;clip-rule:evenodd;fill:#231F20;}
</style>
<path id="ring-outer" class="st0" d="M77.2,564.3c0.5-128.1,51.4-250.9,141.8-341.9c1.6,3.4,2.8,7,3.7,10.7
	C140.5,317.9,89.2,432.8,87.3,559.5C84.1,561.5,80.8,563.1,77.2,564.3z M260.7,198c84-70,189.5-109.1,298.9-110.7
	c1.9-3.2,3.6-6.5,4.8-10c-113.3,0.5-223,40.4-310.1,112.9C256.6,192.6,258.7,195.2,260.7,198z M935.7,260.5
	c70.2,84.1,109.3,189.8,110.9,299.3c3.2,1.9,6.5,3.5,10,4.7c-0.4-113.5-40.4-223.3-113-310.5C941.1,256.3,938.5,258.5,935.7,260.5
	L935.7,260.5z M611.1,89.3c108.9,10,211.1,57.1,289.5,133.4c3.7-0.9,7.2-2.1,10.7-3.8C830.7,139,724.9,89.6,612,79.3
	C611.9,82.6,611.6,86,611.1,89.3z M197.8,872.9c-61.8-74.3-99.7-165.6-108.5-261.8c-3.3,0.5-6.6,0.9-10,0.9
	c9,98.3,47.6,191.5,110.8,267.4C192.4,877.1,195,874.9,197.8,872.9z M1044.6,611.1c-8.9,96.3-46.8,187.7-108.7,262
	c2.8,2,5.4,4.1,7.8,6.5c63.2-75.9,101.9-169.2,110.9-267.6C1051.2,611.9,1047.9,611.7,1044.6,611.1z M559.8,1046.6
	c-127-1.8-242.1-53.3-327-135.8c-3.7,0.9-7.2,2.1-10.6,3.8c91,90.5,214,141.6,342.3,142.1C563.3,1053.1,561.7,1049.7,559.8,1046.6z
	 M901,910.9c-78.4,76.4-180.8,123.6-289.8,133.7c0.5,3.3,0.8,6.6,0.9,10c113.1-10.4,219-59.9,299.5-139.9
	C908.2,913,904.6,911.8,901,910.9z"/>
<path id="ring-inner" class="st0" d="M325.9,246.2c4.6,4.9,8.5,10.4,11.7,16.3c-13.5,10.2-26.4,21.3-38.4,33.2
	c-2.4-1.4-4.6-3.2-6.4-5.3c-2.7-3.1-4.8-6.6-6.3-10.3C298.9,268,312,256.7,325.9,246.2z M177.7,568.3c-4.1,0.3-8.2,1.3-11.9,3
	c0.2,17.3,1.5,34.6,3.8,51.7c6.7-0.3,13.3-1.3,19.8-3.2c-2.3-16.8-3.6-33.8-3.6-50.8C183.1,568.4,180.4,568.1,177.7,568.3z
	 M837.8,298.9c12,12.1,23.1,25,33.4,38.5c5.9-3.2,11.4-7.2,16.3-11.8c-10.4-13.8-21.7-26.9-33.9-39.3c-3.9,1.5-7.5,3.7-10.6,6.4
	C841,294.5,839.2,296.6,837.8,298.9L837.8,298.9z M915.6,368.3c-4.2,5.6-9.1,10.8-14.4,15.4c19.9,36.1,33.7,75.1,41,115.6
	c0.8,0,1.6-0.1,2.3-0.1c6.2,0,12.3,0.7,18.3,2c-5.1-31.1-13.9-61.4-26.2-90.4C930.4,396.2,923.4,382,915.6,368.3L915.6,368.3z
	 M968.2,571.4c-3.9-1.8-8.1-2.8-12.3-3.1c-2.6-0.1-5.1,0.1-7.7,0.6c-0.1,17.1-1.3,34.1-3.7,51c6.4,1.8,13.1,2.9,19.8,3.1
	C966.7,605.9,968,588.7,968.2,571.4L968.2,571.4z M568.9,948.2c-0.5,2.5-0.7,5.1-0.6,7.6c0.3,4.3,1.4,8.5,3.2,12.4
	c17.3-0.2,34.5-1.5,51.6-3.9c-0.2-6.7-1.2-13.3-3.1-19.8C603.1,946.9,586,948.1,568.9,948.2z M188.9,499.2c0.9,0,1.8,0,2.7,0.1
	c9.7-53.9,31-105,62.4-149.9c-0.7-0.7-1.4-1.3-2.1-2c-4.2-4.2-8-8.8-11.2-13.9c-35.7,49.8-59.5,107.2-69.6,167.6
	C176.9,499.8,183,499.2,188.9,499.2L188.9,499.2z M568.3,177.6c-0.1,2.7,0.1,5.4,0.7,8.1c17,0.1,34,1.3,50.8,3.6
	c1.9-6.4,2.9-13.1,3.2-19.8c-17.2-2.4-34.5-3.7-51.8-3.9C569.6,169.5,568.6,173.5,568.3,177.6z M383.9,232.6
	c36-19.8,75-33.6,115.4-40.9c0-0.9-0.1-1.8-0.1-2.8c0-6,0.6-12,1.9-17.9c-31,5.1-61.3,13.9-90.3,26.2c-14.5,6.1-28.5,13.1-42.2,20.9
	C374.2,222.3,379.4,227.2,383.9,232.6z M499.2,944.5c0-0.8,0-1.5,0.1-2.3c-54-9.7-105.2-31-150.2-62.5c-0.6,0.6-1.2,1.3-1.8,1.9
	c-4.3,4.3-9,8.2-14.2,11.4c49.9,35.9,107.4,59.8,168,69.8C499.8,956.8,499.2,950.6,499.2,944.5z M673.8,200.9
	c39.4,11.5,76.8,29.4,110.5,52.9c0.6-0.7,1.2-1.4,1.9-2c4.2-4.3,8.9-8.1,14-11.4c-38.4-27.5-81.5-48-127.1-60.6
	C674.1,186.9,674.3,193.9,673.8,200.9z M786.1,881.6c-0.6-0.6-1.1-1.2-1.6-1.7c-33.8,23.6-71.2,41.5-110.7,53.1
	c0.5,7,0.3,14.1-0.8,21c45.8-12.6,88.9-33.2,127.5-60.8C795.3,889.8,790.5,885.9,786.1,881.6z M295.7,834.6
	c-12-12.1-23.1-25-33.3-38.6c-5.9,3.2-11.4,7.2-16.3,11.8c10.4,13.8,21.7,27,33.8,39.3c3.9-1.5,7.5-3.7,10.7-6.4
	C292.5,838.9,294.2,836.8,295.7,834.6z M932.9,673.8c-7.7,26.4-18.3,52-31.6,76.1c5.3,4.6,10.2,9.8,14.4,15.4
	c16.6-29.1,29.4-60.1,38.3-92.3C947,674,940,674.3,932.9,673.8L932.9,673.8z M218,765c4.2-5.6,9.1-10.8,14.4-15.4
	c-13.2-24.1-23.8-49.5-31.5-75.9c-7,0.5-14,0.3-21-0.7C188.8,705.2,201.5,736,218,765z M871.4,796.1c-10.3,13.6-21.4,26.6-33.4,38.7
	c1.4,2.2,3.1,4.2,5,5.9c3.2,2.8,6.9,5,10.9,6.5c12.1-12.3,23.3-25.4,33.7-39.2C882.8,803.4,877.3,799.4,871.4,796.1L871.4,796.1z"/>
<path id="sun-flares" class="st1" d="M532.5,252.7c-41.7-51.9-32.7-102.1,21.7-145.4c12.5-17.4,32.2-38.7,8.4-75.9
	c64,17.8,44,74.4,13.4,113.1c-26.3,33.2-16.1,54.9,15.9,82.9c-10.5,7.5-23.9,13.8-40.7,18.7C544.9,247.9,538.6,250.1,532.5,252.7z
	 M594.2,396.8c19.8-30.3,41.2-53.8,64.6-68.7c-4.7-16.8-12.2-33.6-22.5-50.9c-12.4,12.5-27.8,24.2-46.5,34.2c-1.8,1-3.5,2-5.1,3
	c14.3,25.1,12.7,45.1-7.1,64c4.8,6.7,10.3,12.8,16.4,18.3L594.2,396.8z M620.7,113.2c20.8,62.5,11.9,116.7-67.4,139.8
	c-46.6,13.6-72,40.1-81.9,76.1c27.3,16.4,48.3,39.4,65.3,71.2c16.2-2.9,32.7-3.5,49-1.7c-34.1-33.5-38.5-72.4,0.8-93.5
	C682.6,253.4,690.6,159.3,620.7,113.2L620.7,113.2z M942.4,185.3c-9.5,43.1-38.4,44.2-59.6,47.7c-69-7.8-111,21.3-118.2,87.5
	c6.1,2.5,12.1,5.4,17.9,8.6c15.3,8.4,29.2,13.5,42,15.6c-2.8-42.5,5.3-65,47.4-69.9C920.9,269,975,243.2,942.4,185.3L942.4,185.3z
	 M706.3,466c35.4-7.4,67.2-9,94.3-2.9c8.5-15.2,15.1-32.4,20.1-51.9c-17.6,0.1-36.8-2.6-57.1-8.7c-2-0.6-3.8-1.1-5.7-1.5
	c-7.6,27.9-22.9,40.9-50.3,40.2c-1.3,8.1-1.7,16.3-1.3,24.6C706.3,466,706.3,466,706.3,466z M925.5,284.2
	c-29.5,58.9-74.1,90.9-146.5,51.2c-74.7-41-131.5-7.5-178.9,65.5c39,7.8,74,29.1,98.9,60.1c-0.3-47.7,24-78.1,66.7-65.3
	C870.2,427.1,942.4,366.2,925.5,284.2z M802.8,659.5c17.7-4.7,35.3-12.4,53.4-23.2C843.7,624,832,608.5,822,589.8c-1-1.8-2-3.5-3-5
	c-25.1,14.3-45.1,12.7-64-7.1c-6.7,4.8-12.8,10.3-18.3,16.4c-0.9,1-1.8,2-2.7,3.1C764.4,613.6,786.7,633.7,802.8,659.5z
	 M1026.2,554.2c-43.3-54.4-93.5-63.4-145.4-21.7c2.5,6.1,4.8,12.4,6.6,18.8c4.9,16.8,11.1,30.2,18.7,40.7c28-32,49.7-42.2,83-15.9
	c38.7,30.6,95.2,50.6,113-13.4C1064.8,586.4,1043.6,566.7,1026.2,554.2L1026.2,554.2z M880.4,553.3c-23.8-81.8-87.5-98.3-172.7-80.3
	c22,33,31.8,72.7,27.5,112.2c33.4-33.7,72-37.8,93.1,1.3c51.8,96.1,145.8,104.1,191.9,34.2C957.7,641.5,903.5,632.5,880.4,553.3
	L880.4,553.3z M706.3,667.5c-0.4,8.2,0,16.4,1.3,24.6c27.4-0.7,42.6,12.3,50.3,40.2c1.9-0.4,3.8-0.9,5.7-1.5
	c20.3-6.1,39.5-8.8,57.1-8.7c-14-54.9-40.6-91.3-88.6-117.8c-4.7,20.9-13.4,40.6-25.5,58.2C706.5,664.2,706.4,665.9,706.3,667.5z
	 M871.9,858.7c-42.1-4.9-50.2-27.5-47.4-69.9c-12.8,2.1-26.7,7.2-42,15.6c-5.8,3.2-11.8,6.1-17.9,8.7c7.2,66.2,49.1,95.3,118.2,87.5
	c21.2,3.5,50.1,4.5,59.6,47.7C975,890.2,920.9,864.4,871.9,858.7z M765.7,737.7c-42.5,12.8-66.9-17.4-66.7-64.8
	c-10.4,12.9-22.6,24.3-36.3,33.7l0.7-0.5c10.3,34.3,11.6,65.3,4,96c32.5,18.5,69.2,19.3,111.7-4c72.4-39.7,117-7.7,146.5,51.2
	C942.4,767.2,870.2,706.3,765.7,737.7L765.7,737.7z M597.8,733.4c-1.2,1.1-2.5,2.2-3.7,3.2c-6.1,5.5-11.6,11.7-16.4,18.4
	c19.8,18.9,21.5,38.8,7.1,64c1.6,1,3.2,2,5,3c18.7,10,34.2,21.6,46.6,34.2c28.9-48.7,35.9-93.3,20.6-145.9
	c-18.1,11.4-38.3,19.3-59.3,23.2L597.8,733.4z M592,906c-10.5-7.5-23.9-13.8-40.7-18.7c-6.4-1.8-12.6-4-18.7-6.6
	c-41.7,51.9-32.7,102.1,21.7,145.4c12.5,17.4,32.2,38.7,8.4,75.9c64-17.8,44-74.4,13.4-113.1C549.8,955.7,559.9,934,592,906z
	 M586.5,828.3c-39.1-21-35-59.6-1.3-93c-14.9,1.6-29.9,1.3-44.7-1.1h0.2c-20.9,32.5-43.6,57.5-68.6,72.6
	c10.4,34.8,35.7,60.4,81.2,73.6c79.3,23.1,88.2,77.3,67.4,139.8C690.6,974.1,682.6,880,586.5,828.3L586.5,828.3z M426.9,663.4
	c-33.1,9.9-63.1,11.4-92.7,4.6c-9.2,15.8-16.2,33.7-21.4,54.2c17.6-0.1,36.8,2.6,57.1,8.7c2,0.6,3.8,1.1,5.7,1.5
	c7.6-27.9,22.9-40.9,50.3-40.2c1.3-8.1,1.7-16.3,1.3-24.6C427.1,666.1,427,664.8,426.9,663.4z M351,804.3
	c-15.3-8.4-29.2-13.5-42-15.6c2.8,42.5-5.3,65-47.4,69.9c-49,5.7-103.1,31.5-70.5,89.4c9.5-43.1,38.4-44.2,59.6-47.7
	c69,7.8,111-21.3,118.2-87.5C362.8,810.4,356.8,807.5,351,804.3z M434.5,672.3c0.4,47.7-24,78.1-66.7,65.3
	C263.3,706.3,191.1,767.1,208,849.2c29.4-58.9,74.1-90.9,146.5-51.2c74.6,41,131.3,7.7,178.7-65.2
	C494.2,724.9,459.3,703.5,434.5,672.3L434.5,672.3z M227.5,591.9c7.5-10.5,13.7-23.9,18.6-40.6c1.8-6.4,4.1-12.6,6.6-18.8
	c-51.9-41.7-102.1-32.7-145.4,21.7c-17.4,12.5-38.7,32.2-75.9,8.5c17.8,64,74.4,44,113.1,13.4C177.7,549.7,199.4,559.9,227.5,591.9
	L227.5,591.9z M400.6,598.4c-1.2-1.5-2.5-2.9-3.8-4.3c-5.5-6.1-11.6-11.6-18.3-16.4c-18.9,19.8-38.8,21.5-64,7.1c-1,1.6-2,3.3-3,5
	c-10.1,18.7-21.7,34.2-34.2,46.5c48.8,29,93.5,35.9,146.2,20.5c-11.3-18-19.1-38-23-58.8C400.5,598.2,400.5,598.3,400.6,598.4
	L400.6,598.4z M399.8,540.5c0,0.2,0,0.3-0.1,0.5c-32.6-21-57.8-43.7-73-68.9c-34.8,10.4-60.4,35.7-73.6,81.1
	c-23.1,79.3-77.3,88.2-139.8,67.4c46.1,69.9,140.1,61.9,191.9-34.2c21.1-39.3,60-34.9,93.5-0.8C397,570.6,397.4,555.4,399.8,540.5
	L399.8,540.5z M402.7,369.8c-0.6,1.9-1.1,3.8-1.5,5.7c27.9,7.6,40.9,22.9,40.2,50.3c8.1,1.3,16.3,1.8,24.5,1.3c2-0.1,4-0.2,6.1-0.4
	l-0.4,0.3c17.5-12,37.1-20.5,57.7-25.2c-26.4-48.3-63-75-118-89.1C411.4,330.4,408.7,349.5,402.7,369.8L402.7,369.8z M329.2,350.9
	c8.4-15.3,13.5-29.2,15.6-42c-42.5,2.8-65-5.4-69.9-47.4c-5.7-49-31.6-103.1-89.4-70.5c43.1,9.5,44.2,38.4,47.7,59.6
	c-7.8,69,21.3,111,87.5,118.1C323.1,362.7,325.9,356.7,329.2,350.9L329.2,350.9z M461.6,434.4c-48,0.5-78.6-23.9-65.8-66.7
	c31.4-104.6-29.5-176.7-111.5-159.9c58.9,29.5,90.9,74.1,51.2,146.5c-41,74.7-7.5,131.5,65.5,179C409,494.3,430.4,459.3,461.6,434.4
	L461.6,434.4z"/>
<path id="sun-2" class="st0" d="M566.9,376.1c-105.3,0-190.8,85.5-190.8,190.8s85.5,190.8,190.8,190.8s190.8-85.5,190.8-190.8
	S672.2,376.1,566.9,376.1z M566.9,736.2c-93.5,0-169.3-75.9-169.3-169.3s75.9-169.3,169.3-169.3s169.3,75.9,169.3,169.3
	S660.4,736.2,566.9,736.2z"/>
<path id="moon-2" class="st1" d="M696.8,533.3c0-14.1-3-28.1-8.9-41c27.4,45.2,28,101.7,1.6,147.5l-7.5-54.4
	C691.7,569.7,696.8,551.7,696.8,533.3z M673.6,597c-15.2,18.2-36.4,30.3-59.8,34.2l-25.9,79.1c37.5-6.3,71-27.1,93.3-57.8L673.6,597
	z M597.4,632.6c-22.8,0-44.9-7.8-62.6-22.2L470.1,678c26.2,22.2,59.4,34.4,93.7,34.4c4.4,0,8.7-0.2,13-0.6l26-79.3
	C601.1,632.5,599.3,632.6,597.4,632.6L597.4,632.6z M498.1,535.6l-79.3,30.6c0,0.4,0,0.7,0,1.1c0,39.1,15.8,76.6,43.9,103.9
	l64.7-67.5C509.2,585.6,498.7,561.2,498.1,535.6L498.1,535.6z M498.5,524.7c2.4-27.8,16.3-53.3,38.4-70.2l-52.9-8.1
	c-37.1,24.5-60.9,64.7-64.6,109L498.5,524.7z M549.4,446.3c27-14.9,59.4-16.5,87.7-4.2c-42.8-25-95.4-26.5-139.5-3.8L549.4,446.3z"
	/>
</svg>
