<?xml version="1.0" encoding="utf-8"?>
<!-- Generator: Adobe Illustrator 25.2.3, SVG Export Plug-In . SVG Version: 6.00 Build 0)  -->
<svg version="1.1" id="Seal" xmlns="http://www.w3.org/2000/svg" xmlns:xlink="http://www.w3.org/1999/xlink" x="0px" y="0px"
	 viewBox="0 0 113.4 113.4" style="enable-background:new 0 0 113.4 113.4;" xml:space="preserve">
<style type="text/css">
	.st0{fill:#231F20;}
	.st1{fill-rule:evenodd;clip-rule:evenodd;fill:#231F20;}
</style>
<path id="ring-outer" class="st0" d="M7.4,56.4C7.5,43.5,12.6,31.2,21.7,22c0.2,0.3,0.3,0.7,0.4,1.1C13.8,31.6,8.6,43.2,8.4,55.9
	C8.1,56.1,7.8,56.3,7.4,56.4z M25.9,19.6c8.5-7,19.1-11,30.1-11.1c0.2-0.3,0.4-0.7,0.5-1C45,7.5,34,11.5,25.2,18.8
	C25.5,19,25.7,19.3,25.9,19.6z M93.8,25.9c7.1,8.5,11,19.1,11.2,30.1c0.3,0.2,0.7,0.4,1,0.5c0-11.4-4.1-22.5-11.4-31.2
	C94.3,25.4,94.1,25.7,93.8,25.9L93.8,25.9z M61.1,8.6c11,1,21.2,5.7,29.1,13.4c0.4-0.1,0.7-0.2,1.1-0.4c-8.1-8-18.7-13-30.1-14
	C61.2,8,61.2,8.3,61.1,8.6z M19.6,87.5C13.3,80,9.5,70.8,8.6,61.1c-0.3,0.1-0.7,0.1-1,0.1c0.9,9.9,4.8,19.3,11.1,26.9
	C19,87.9,19.3,87.7,19.6,87.5z M104.8,61.1c-0.9,9.7-4.7,18.9-10.9,26.4c0.3,0.2,0.5,0.4,0.8,0.7c6.4-7.6,10.2-17,11.2-26.9
	C105.4,61.2,105.1,61.2,104.8,61.1z M56,104.9c-12.8-0.2-24.4-5.4-32.9-13.7c-0.4,0.1-0.7,0.2-1.1,0.4c9.2,9.1,21.5,14.2,34.4,14.3
	C56.3,105.6,56.2,105.3,56,104.9z M90.3,91.3c-7.9,7.7-18.2,12.4-29.2,13.5c0.1,0.3,0.1,0.7,0.1,1c11.4-1,22-6,30.1-14.1
	C91,91.5,90.7,91.4,90.3,91.3z"/>
<path id="ring-inner" class="st0" d="M32.4,24.4c0.5,0.5,0.9,1.1,1.2,1.6c-1.4,1-2.7,2.1-3.9,3.3c-0.2-0.1-0.5-0.3-0.6-0.5
	c-0.3-0.3-0.5-0.7-0.6-1C29.7,26.6,31,25.5,32.4,24.4z M17.5,56.8c-0.4,0-0.8,0.1-1.2,0.3c0,1.7,0.1,3.5,0.4,5.2
	c0.7,0,1.3-0.1,2-0.3c-0.2-1.7-0.4-3.4-0.4-5.1C18.1,56.8,17.8,56.8,17.5,56.8z M83.9,29.7c1.2,1.2,2.3,2.5,3.4,3.9
	c0.6-0.3,1.1-0.7,1.6-1.2c-1-1.4-2.2-2.7-3.4-4c-0.4,0.2-0.8,0.4-1.1,0.6C84.3,29.3,84.1,29.5,83.9,29.7L83.9,29.7z M91.8,36.7
	c-0.4,0.6-0.9,1.1-1.5,1.5c2,3.6,3.4,7.6,4.1,11.6c0.1,0,0.2,0,0.2,0c0.6,0,1.2,0.1,1.8,0.2C96,47,95.1,43.9,93.9,41
	C93.3,39.5,92.6,38.1,91.8,36.7L91.8,36.7z M97.1,57.1c-0.4-0.2-0.8-0.3-1.2-0.3c-0.3,0-0.5,0-0.8,0.1c0,1.7-0.1,3.4-0.4,5.1
	c0.6,0.2,1.3,0.3,2,0.3C96.9,60.6,97,58.9,97.1,57.1L97.1,57.1z M56.9,95c-0.1,0.3-0.1,0.5-0.1,0.8c0,0.4,0.1,0.9,0.3,1.2
	c1.7,0,3.5-0.1,5.2-0.4c0-0.7-0.1-1.3-0.3-2C60.3,94.9,58.6,95,56.9,95z M18.7,49.9c0.1,0,0.2,0,0.3,0c1-5.4,3.1-10.6,6.3-15.1
	c-0.1-0.1-0.1-0.1-0.2-0.2c-0.4-0.4-0.8-0.9-1.1-1.4c-3.6,5-6,10.8-7,16.9C17.5,49.9,18.1,49.9,18.7,49.9L18.7,49.9z M56.8,17.5
	c0,0.3,0,0.5,0.1,0.8c1.7,0,3.4,0.1,5.1,0.4c0.2-0.6,0.3-1.3,0.3-2c-1.7-0.2-3.5-0.4-5.2-0.4C57,16.7,56.9,17.1,56.8,17.5z M38.3,23
	c3.6-2,7.5-3.4,11.6-4.1c0-0.1,0-0.2,0-0.3c0-0.6,0.1-1.2,0.2-1.8c-3.1,0.5-6.2,1.4-9.1,2.6c-1.5,0.6-2.9,1.3-4.2,2.1
	C37.3,22,37.8,22.5,38.3,23z M49.9,94.7c0-0.1,0-0.2,0-0.2c-5.4-1-10.6-3.1-15.1-6.3c-0.1,0.1-0.1,0.1-0.2,0.2
	c-0.4,0.4-0.9,0.8-1.4,1.2c5,3.6,10.8,6,16.9,7C49.9,95.9,49.9,95.3,49.9,94.7z M67.4,19.9c4,1.2,7.7,3,11.1,5.3
	c0.1-0.1,0.1-0.1,0.2-0.2c0.4-0.4,0.9-0.8,1.4-1.1c-3.9-2.8-8.2-4.8-12.8-6.1C67.5,18.5,67.5,19.2,67.4,19.9z M78.7,88.3
	c-0.1-0.1-0.1-0.1-0.2-0.2c-3.4,2.4-7.2,4.2-11.1,5.3c0.1,0.7,0,1.4-0.1,2.1c4.6-1.3,8.9-3.3,12.8-6.1
	C79.7,89.2,79.2,88.8,78.7,88.3z M29.4,83.6c-1.2-1.2-2.3-2.5-3.4-3.9c-0.6,0.3-1.1,0.7-1.6,1.2c1,1.4,2.2,2.7,3.4,4
	c0.4-0.2,0.8-0.4,1.1-0.6C29.1,84.1,29.3,83.8,29.4,83.6z M93.5,67.4c-0.8,2.7-1.8,5.2-3.2,7.7c0.5,0.5,1,1,1.4,1.6
	c1.7-2.9,3-6,3.9-9.3C94.9,67.5,94.2,67.5,93.5,67.4L93.5,67.4z M21.6,76.6c0.4-0.6,0.9-1.1,1.5-1.5c-1.3-2.4-2.4-5-3.2-7.6
	c-0.7,0.1-1.4,0-2.1-0.1C18.6,70.6,19.9,73.7,21.6,76.6z M87.3,79.7c-1,1.4-2.2,2.7-3.4,3.9c0.1,0.2,0.3,0.4,0.5,0.6
	c0.3,0.3,0.7,0.5,1.1,0.7c1.2-1.2,2.3-2.6,3.4-3.9C88.5,80.5,87.9,80.1,87.3,79.7L87.3,79.7z"/>
<path id="sun-flares" class="st1" d="M53.3,25.1c-4.2-5.2-3.3-10.3,2.2-14.6c1.3-1.8,3.2-3.9,0.8-7.6c6.4,1.8,4.4,7.5,1.3,11.4
	c-2.6,3.3-1.6,5.5,1.6,8.3c-1.1,0.8-2.4,1.4-4.1,1.9C54.5,24.6,53.9,24.8,53.3,25.1z M59.5,39.6c2-3,4.1-5.4,6.5-6.9
	c-0.5-1.7-1.2-3.4-2.3-5.1C62.5,28.8,60.9,30,59,31c-0.2,0.1-0.3,0.2-0.5,0.3c1.4,2.5,1.3,4.5-0.7,6.4C58.3,38.4,58.8,39,59.5,39.6
	L59.5,39.6z M62.1,11.1c2.1,6.3,1.2,11.7-6.8,14.1c-4.7,1.4-7.2,4-8.2,7.7c2.7,1.6,4.9,4,6.6,7.2c1.6-0.3,3.3-0.3,4.9-0.2
	c-3.4-3.4-3.9-7.3,0.1-9.4C68.4,25.2,69.2,15.7,62.1,11.1L62.1,11.1z M94.5,18.3c-1,4.3-3.9,4.4-6,4.8c-6.9-0.8-11.2,2.1-11.9,8.8
	c0.6,0.3,1.2,0.5,1.8,0.9c1.5,0.8,2.9,1.4,4.2,1.6c-0.3-4.3,0.5-6.5,4.8-7C92.3,26.7,97.8,24.1,94.5,18.3L94.5,18.3z M70.7,46.6
	c3.6-0.7,6.8-0.9,9.5-0.3c0.9-1.5,1.5-3.3,2-5.2c-1.8,0-3.7-0.3-5.7-0.9c-0.2-0.1-0.4-0.1-0.6-0.1c-0.8,2.8-2.3,4.1-5.1,4
	C70.7,44.9,70.7,45.7,70.7,46.6C70.7,46.6,70.7,46.6,70.7,46.6z M92.8,28.3c-3,5.9-7.5,9.1-14.7,5.2c-7.5-4.1-13.2-0.8-18,6.6
	c3.9,0.8,7.4,2.9,9.9,6c0-4.8,2.4-7.9,6.7-6.6C87.2,42.6,94.5,36.5,92.8,28.3z M80.4,66c1.8-0.5,3.5-1.2,5.4-2.3
	c-1.3-1.2-2.4-2.8-3.4-4.7c-0.1-0.2-0.2-0.3-0.3-0.5c-2.5,1.4-4.5,1.3-6.4-0.7c-0.7,0.5-1.3,1-1.8,1.7c-0.1,0.1-0.2,0.2-0.3,0.3
	C76.6,61.4,78.8,63.4,80.4,66z M102.9,55.4c-4.4-5.5-9.4-6.4-14.6-2.2c0.3,0.6,0.5,1.2,0.7,1.9c0.5,1.7,1.1,3,1.9,4.1
	c2.8-3.2,5-4.2,8.4-1.6c3.9,3.1,9.6,5.1,11.4-1.3C106.8,58.7,104.7,56.7,102.9,55.4L102.9,55.4z M88.3,55.3
	c-2.4-8.2-8.8-9.9-17.4-8.1c2.2,3.3,3.2,7.3,2.8,11.3c3.4-3.4,7.2-3.8,9.4,0.1c5.2,9.7,14.7,10.5,19.3,3.4
	C96,64.2,90.6,63.3,88.3,55.3L88.3,55.3z M70.7,66.8c0,0.8,0,1.7,0.1,2.5c2.8-0.1,4.3,1.2,5.1,4c0.2,0,0.4-0.1,0.6-0.1
	c2-0.6,4-0.9,5.7-0.9c-1.4-5.5-4.1-9.2-8.9-11.8c-0.5,2.1-1.3,4.1-2.6,5.9C70.8,66.5,70.7,66.7,70.7,66.8z M87.4,86.1
	c-4.2-0.5-5.1-2.8-4.8-7c-1.3,0.2-2.7,0.7-4.2,1.6c-0.6,0.3-1.2,0.6-1.8,0.9c0.7,6.7,4.9,9.6,11.9,8.8c2.1,0.3,5,0.5,6,4.8
	C97.8,89.2,92.3,86.6,87.4,86.1z M76.7,73.9c-4.3,1.3-6.7-1.8-6.7-6.5c-1,1.3-2.3,2.4-3.7,3.4l0.1,0c1,3.5,1.2,6.6,0.4,9.7
	c3.3,1.9,7,1.9,11.2-0.4c7.3-4,11.8-0.8,14.7,5.2C94.5,76.9,87.2,70.7,76.7,73.9L76.7,73.9z M59.8,73.5c-0.1,0.1-0.2,0.2-0.4,0.3
	c-0.6,0.6-1.2,1.2-1.7,1.8c2,1.9,2.2,3.9,0.7,6.4c0.2,0.1,0.3,0.2,0.5,0.3c1.9,1,3.4,2.2,4.7,3.4c2.9-4.9,3.6-9.4,2.1-14.7
	C64,72.3,61.9,73.1,59.8,73.5L59.8,73.5z M59.2,90.8c-1.1-0.8-2.4-1.4-4.1-1.9c-0.6-0.2-1.3-0.4-1.9-0.7c-4.2,5.2-3.3,10.3,2.2,14.6
	c1.3,1.8,3.2,3.9,0.8,7.6c6.4-1.8,4.4-7.5,1.3-11.4C55,95.8,56,93.6,59.2,90.8z M58.7,83c-3.9-2.1-3.5-6-0.1-9.4
	c-1.5,0.2-3,0.1-4.5-0.1h0c-2.1,3.3-4.4,5.8-6.9,7.3c1,3.5,3.6,6.1,8.2,7.4c8,2.3,8.9,7.8,6.8,14.1C69.2,97.7,68.4,88.2,58.7,83
	L58.7,83z M42.6,66.4c-3.3,1-6.3,1.2-9.3,0.5c-0.9,1.6-1.6,3.4-2.2,5.4c1.8,0,3.7,0.3,5.7,0.9c0.2,0.1,0.4,0.1,0.6,0.1
	c0.8-2.8,2.3-4.1,5.1-4c0.1-0.8,0.2-1.6,0.1-2.5C42.6,66.7,42.6,66.6,42.6,66.4z M35,80.6c-1.5-0.8-2.9-1.4-4.2-1.6
	c0.3,4.3-0.5,6.5-4.8,7c-4.9,0.6-10.4,3.2-7.1,9c1-4.3,3.9-4.4,6-4.8c6.9,0.8,11.2-2.1,11.9-8.8C36.2,81.2,35.6,80.9,35,80.6z
	 M43.4,67.3c0,4.8-2.4,7.9-6.7,6.6c-10.5-3.2-17.8,3-16.1,11.2c3-5.9,7.5-9.1,14.7-5.2c7.5,4.1,13.2,0.8,18-6.6
	C49.4,72.6,45.9,70.5,43.4,67.3L43.4,67.3z M22.6,59.2c0.7-1.1,1.4-2.4,1.9-4.1c0.2-0.6,0.4-1.3,0.7-1.9c-5.2-4.2-10.3-3.3-14.6,2.2
	c-1.8,1.3-3.9,3.2-7.6,0.9c1.8,6.4,7.5,4.4,11.4,1.3C17.6,55,19.7,56,22.6,59.2L22.6,59.2z M40,59.9c-0.1-0.1-0.3-0.3-0.4-0.4
	c-0.6-0.6-1.2-1.2-1.8-1.7c-1.9,2-3.9,2.2-6.4,0.7c-0.1,0.2-0.2,0.3-0.3,0.5c-1,1.9-2.2,3.4-3.4,4.7c4.9,2.9,9.4,3.6,14.7,2.1
	C41.2,64,40.4,61.9,40,59.9C40,59.9,40,59.9,40,59.9L40,59.9z M39.9,54.1C39.9,54.1,39.9,54.1,39.9,54.1c-3.3-2.1-5.8-4.4-7.4-6.9
	c-3.5,1-6.1,3.6-7.4,8.2c-2.3,8-7.8,8.9-14.1,6.8c4.6,7,14.1,6.2,19.3-3.4c2.1-4,6-3.5,9.4-0.1C39.6,57.1,39.7,55.6,39.9,54.1
	L39.9,54.1z M40.2,36.9c-0.1,0.2-0.1,0.4-0.1,0.6c2.8,0.8,4.1,2.3,4,5.1c0.8,0.1,1.6,0.2,2.5,0.1c0.2,0,0.4,0,0.6,0l0,0
	c1.8-1.2,3.7-2.1,5.8-2.5c-2.7-4.9-6.3-7.5-11.9-9C41.1,32.9,40.8,34.8,40.2,36.9L40.2,36.9z M32.8,35c0.8-1.5,1.4-2.9,1.6-4.2
	c-4.3,0.3-6.5-0.5-7-4.8c-0.6-4.9-3.2-10.4-9-7.1c4.3,1,4.4,3.9,4.8,6c-0.8,6.9,2.1,11.2,8.8,11.9C32.2,36.2,32.5,35.6,32.8,35
	L32.8,35z M46.1,43.4c-4.8,0.1-7.9-2.4-6.6-6.7c3.2-10.5-3-17.8-11.2-16.1c5.9,3,9.1,7.5,5.2,14.7c-4.1,7.5-0.8,13.2,6.6,18
	C40.8,49.4,43,45.9,46.1,43.4L46.1,43.4z"/>
<path id="sun-2" class="st0" d="M56.7,37.5c-10.6,0-19.2,8.6-19.2,19.2s8.6,19.2,19.2,19.2s19.2-8.6,19.2-19.2S67.3,37.5,56.7,37.5z
	 M56.7,73.7c-9.4,0-17-7.6-17-17s7.6-17,17-17s17,7.6,17,17S66.1,73.7,56.7,73.7z"/>
<path id="moon-2" class="st1" d="M70.1,53.3c0-1.4-0.3-2.8-0.9-4.1c2.8,4.5,2.8,10.2,0.2,14.8l-0.8-5.5
	C69.6,56.9,70.1,55.1,70.1,53.3z M67.7,59.7c-1.5,1.8-3.7,3.1-6,3.4l-2.6,8c3.8-0.6,7.1-2.7,9.4-5.8L67.7,59.7z M60.1,63.3
	c-2.3,0-4.5-0.8-6.3-2.2l-6.5,6.8c2.6,2.2,6,3.5,9.4,3.5c0.4,0,0.9,0,1.3-0.1l2.6-8C60.4,63.3,60.3,63.3,60.1,63.3L60.1,63.3z
	 M50.1,53.5l-8,3.1c0,0,0,0.1,0,0.1c0,3.9,1.6,7.7,4.4,10.5l6.5-6.8C51.2,58.5,50.1,56.1,50.1,53.5L50.1,53.5z M50.1,52.4
	c0.2-2.8,1.6-5.4,3.9-7.1l-5.3-0.8c-3.7,2.5-6.1,6.5-6.5,11L50.1,52.4z M55.2,44.5c2.7-1.5,6-1.7,8.8-0.4c-4.3-2.5-9.6-2.7-14-0.4
	L55.2,44.5z"/>
</svg>
